<svg width="22" height="30" viewBox="0 0 22 30" fill="none" xmlns="http://www.w3.org/2000/svg">
<path d="M21.65 10.65C21.65 17.5667 14.9 25.8833 12.15 28.9833C11.5333 29.6667 10.4667 29.6667 9.85 28.9833C7.1 25.8833 0.349998 17.5667 0.349998 10.65C0.349998 4.76667 5.11667 0 11 0C16.8833 0 21.65 4.76667 21.65 10.65Z" fill="#B30623"/>
<path d="M10.9833 14.9167C13.3397 14.9167 15.25 13.0064 15.25 10.65C15.25 8.29361 13.3397 6.38336 10.9833 6.38336C8.62692 6.38336 6.71667 8.29361 6.71667 10.65C6.71667 13.0064 8.62692 14.9167 10.9833 14.9167Z" fill="white"/>
</svg>
